<?xml version="1.0" ?><svg id="Layer_1" style="enable-background:new 0 0 128 128;" version="1.1" viewBox="0 0 128 128" xml:space="preserve" xmlns="http://www.w3.org/2000/svg" xmlns:xlink="http://www.w3.org/1999/xlink"><style type="text/css">
	.st0{fill:#0BB6EA;}
	.st1{fill:#0095CF;}
	.st2{fill:#FFFFFF;}
	.st3{fill:#535E6F;}
	.st4{fill:#99C23E;}
	.st5{fill:#FFCC04;}
	.st6{fill:#22D2FC;}
	.st7{fill:#E5E8EC;}
	.st8{fill:#CED4DF;}
	.st9{fill:#F59C1D;}
	.st10{fill:#EC7A23;}
	.st11{fill:#535A85;}
	.st12{fill:#8562A6;}
	.st13{fill:#6C548C;}
	.st14{fill:#F7AF19;}
	.st15{fill:#EF4C45;}
	.st16{fill:#BED630;}
	.st17{fill:#ABC437;}
	.st18{fill:#CD2E30;}
	.st19{fill:#6A5868;}
	.st20{fill:#C5DFDC;}
	.st21{fill:#94CECD;}
	.st22{fill:#3FA3DB;}
	.st23{fill:#6D9583;}
	.st24{fill:#54806C;}
	.st25{fill:#EE3B87;}
	.st26{fill:#7C6B7B;}
	.st27{fill:#337CBF;}
	.st28{fill:#ABB2B9;}
	.st29{fill:#F06097;}
	.st30{fill:#EFB395;}
	.st31{fill:#D9B9A8;}
	.st32{fill:#D6AB9A;}
	.st33{fill:#3C9C46;}
	.st34{fill:#616B77;}
	.st35{opacity:0.2;}
	.st36{fill:#5A4A56;}
	.st37{fill:#F9AA53;}
	.st38{fill:#F45D5D;}
	.st39{fill:#1E67AF;}
	.st40{fill:#29509B;}
	.st41{fill:#FCD65E;}
	.st42{fill:#D9E842;}
	.st43{opacity:0.15;fill:#FFFFFF;}
	.st44{fill:#444D5B;}
	.st45{fill:#6EA4BB;}
	.st46{fill:#4A93AC;}
	.st47{fill:#A3499A;}
	.st48{fill:#883785;}
	.st49{fill:#009A9C;}
	.st50{fill:#00B0A6;}
	.st51{fill:#1C8040;}
	.st52{fill:#E3227E;}
	.st53{fill:#52BA5A;}
	.st54{fill:#9376B5;}
	.st55{fill:#DE9F75;}
	.st56{fill:#C17E5D;}
	.st57{opacity:0.1;}
	.st58{fill:#4C3F49;}
	.st59{fill:#AF7054;}
	.st60{fill:#5D497C;}
	.st61{fill:#D38E16;}
</style><g><circle class="st23" cx="64" cy="64" r="64"/><path class="st24" d="M95.8,33.7L90,38.3L68.8,17.2L42.4,88.5l-16.1,1.1l11.5,11.5l-0.8,2.2l24.7,24.7c0.8,0,1.6,0.1,2.4,0.1   c34.7,0,63-27.7,64-62.1L95.8,33.7z"/><g><path class="st2" d="M93.2,32.7H34.9c-2.2,0-4,1.8-4,4v41.9c0,2.2,1.8,4,4,4h58.4c2.2,0,4-1.8,4-4V36.7    C97.2,34.5,95.5,32.7,93.2,32.7z"/><path class="st5" d="M93.2,65.4V36.7H71.5c0.7,4.7,2.5,9.6,5.3,14.2C81.1,58,87.1,63,93.2,65.4z"/><path class="st5" d="M93.2,65.4V36.7H71.5c0.7,4.7,2.5,9.6,5.3,14.2C81.1,58,87.1,63,93.2,65.4z"/><path class="st14" d="M79.6,48.2c-2.3-3.7-3.9-7.6-4.8-11.5h-3.3c0.7,4.7,2.5,9.6,5.3,14.2c4.3,7,10.3,12,16.4,14.5v-4    C88.1,58.7,83.2,54.1,79.6,48.2z"/><path class="st5" d="M74.8,36.7c0.9,3.8,2.5,7.7,4.8,11.5c3.7,5.9,8.5,10.5,13.7,13.2V36.7H74.8z"/><path class="st54" d="M56.8,57c-7-5.4-15.4-7.2-22-5.5v27.1h32.8C68.4,71.4,64.5,62.9,56.8,57z"/><path class="st42" d="M56.8,57c-7-5.4-15.4-7.2-22-5.5v2.6c6-0.6,12.9,1.5,18.8,6c6.6,5,10.4,12,10.9,18.4h3.1    C68.4,71.4,64.5,62.9,56.8,57z"/><path class="st16" d="M51,78.6h13.6c-0.5-6.4-4.3-13.4-10.9-18.4c-6-4.6-12.8-6.6-18.8-6v11.5c3,1,5.9,2.6,8.7,4.7    C46.6,72.7,49.1,75.6,51,78.6z"/><path class="st17" d="M51,78.6c-1.8-3-4.3-5.9-7.5-8.3c-2.7-2.1-5.7-3.7-8.7-4.7v13H51z"/><path class="st7" d="M93.2,65.4C87.1,63,81.1,58,76.8,51c-2.9-4.6-4.6-9.5-5.3-14.2H34.9v14.8c6.6-1.8,14.9,0.1,22,5.5    c7.7,5.9,11.6,14.4,10.8,21.6h25.6V65.4z"/><path class="st55" d="M99.9,82.6H28.2c-1.4,0-2.6,1.1-2.6,2.6V88c0,1.4,1.1,2.6,2.6,2.6h71.6c1.4,0,2.6-1.1,2.6-2.6v-2.9    C102.4,83.7,101.3,82.6,99.9,82.6z"/><g><path class="st55" d="M75.6,90.6l5.2,11.8c0.6,1.3,1.8,2.1,3.2,2.1h4.6c2.5,0,4.2-2.6,3.2-4.9l-3.9-9H75.6z"/><path class="st55" d="M52.5,90.6l-5.2,11.8c-0.6,1.3-1.8,2.1-3.2,2.1h-4.6c-2.5,0-4.2-2.6-3.2-4.9l3.9-9H52.5z"/></g><g><polygon class="st56" points="88.8,92.8 87.8,90.6 75.6,90.6 76.6,92.8    "/><polygon class="st56" points="51.5,92.8 52.5,90.6 40.3,90.6 39.3,92.8    "/></g><g><path class="st55" d="M69.3,90.6H58.8V98c0,1.9,1.6,3.5,3.5,3.5h3.5c1.9,0,3.5-1.6,3.5-3.5V90.6z"/><rect class="st56" height="2.3" width="10.4" x="58.8" y="90.6"/></g><g><path class="st55" d="M58.8,27.7l10.4,0l1.3-6.6c0.5-2.3-1.3-4.4-4.1-4.4l-4.9,0c-2.7,0-4.5,2.1-4.1,4.4L58.8,27.7z"/><polygon class="st56" points="58.5,26 58.8,27.7 69.3,27.7 69.6,26    "/></g><path class="st55" d="M75.8,32.7H52.3v0c0-2.8,2.3-5.1,5.1-5.1h13.4C73.5,27.7,75.8,29.9,75.8,32.7L75.8,32.7z"/></g></g></svg>