<?xml version="1.0" ?><svg id="Layer_1" style="enable-background:new 0 0 512 512;" version="1.1" viewBox="0 0 512 512" xml:space="preserve" xmlns="http://www.w3.org/2000/svg" xmlns:xlink="http://www.w3.org/1999/xlink"><style type="text/css">
	.st0{fill:#45B39C;}
	.st1{opacity:0.1;}
	.st2{fill:#64798A;}
	.st3{fill:#FFFFFF;}
	.st4{fill:#EBF0F3;}
	.st5{fill:#FCD462;}
	.st6{fill:#44C4A1;}
	.st7{fill:#E56353;}
	.st8{fill:#F6C358;}
	.st9{fill:#3A556A;}
	.st10{fill:#E1E6E9;}
	.st11{fill:#334D5C;}
	.st12{fill:#D5D6DB;}
	.st13{fill:#27A2DB;}
	.st14{fill:#D15241;}
	.st15{fill:#CE412D;}
	.st16{fill:#EFC84A;}
	.st17{fill:#E05B49;}
	.st18{fill:#2D93BA;}
	.st19{fill:#2F4859;}
	.st20{fill:#EA8953;}
	.st21{fill:#3EA69B;}
	.st22{fill:#DC8744;}
	.st23{fill:#CC7940;}
	.st24{fill:#1C75A1;}
	.st25{fill:#31978C;}
	.st26{opacity:0.25;fill:#27A2DB;}
	.st27{fill:none;}
	.st28{fill:#F2B853;}
</style><g><circle class="st11" cx="256" cy="256" r="256"/><path class="st1" d="M258.2,109.4c-9.9,0-19.5,1.1-28.7,3.1l7.6,34.3l-16.5-16.5c-59.8,13.1-104.6,66.4-104.6,130.1   c0,38,15.9,72.4,41.5,96.7l0.5,0.5l149.2,149.2c101.4-20.6,181-101.2,200.2-203.2l-160-160C323.9,122.4,292.6,109.4,258.2,109.4z"/><g><path class="st6" d="M393.4,282c1.7-8.4,2.6-17.1,2.6-26c0-39.2-17-74.5-44-98.9L262.7,256L393.4,282z"/><path class="st13" d="M347.5,143.7c-23.6-21.4-55-34.4-89.3-34.4c-9.8,0-19.4,1.1-28.7,3.1l28.7,130.1L347.5,143.7z"/><path class="st5" d="M220.6,130.3C160.8,143.5,116,196.7,116,260.5c0,58,37,107.3,88.7,125.6l44.5-125.6L220.6,130.3z"/><path class="st7" d="M258.2,269.4L213.7,395c13.9,4.9,28.9,7.7,44.5,7.7c64.7,0,118.6-46.1,130.7-107.2L258.2,269.4z"/></g></g></svg>