<?xml version="1.0" ?><!DOCTYPE svg  PUBLIC '-//W3C//DTD SVG 1.1//EN'  'http://www.w3.org/Graphics/SVG/1.1/DTD/svg11.dtd'><svg enable-background="new 0 0 129 129" id="Layer_1" version="1.1" viewBox="0 0 129 129" xml:space="preserve" xmlns="http://www.w3.org/2000/svg" xmlns:xlink="http://www.w3.org/1999/xlink"><g><g><g><g><circle cx="64.5" cy="64.5" fill="#05B0A6" r="64"/></g></g></g><g><path d="M128,72.3l-21.2-21.2L28.6,98.6l29.6,29.6c2.1,0.2,4.1,0.3,6.2,0.3C97.2,128.5,124.2,104,128,72.3z" fill="#029A9C"/></g><g><g><g><polygon fill="#029A9C" points="46,43.9 33.3,31.2 46.3,24.7 61.2,39.6     "/></g></g><g><g><g><g><rect fill="#FFFFFF" height="19.5" width="9.9" x="34.8" y="26.7"/></g></g><g><g><polygon fill="#E6E8EB" points="36.2,31.2 34.8,31.7 34.8,31.7 44.8,41.6 44.8,31.2       "/></g></g><g><g><g><path d="M46.8,30.3v-4.5c0-0.8-0.6-1.4-1.4-1.4H34.3c-0.8,0-1.4,0.6-1.4,1.4v4.5c0,0.8,0.6,1.4,1.4,1.4h11.1         C46.1,31.7,46.8,31,46.8,30.3z" fill="#FCD65E"/></g></g></g><g><g><g><path d="M100.7,51v46.7c0,0.8-0.6,1.4-1.4,1.4H29.7c-0.8,0-1.4-0.6-1.4-1.4V51l36.2-17.9L100.7,51z" fill="#FFFFFF"/></g></g><g><g><g><path d="M101.1,56.9L64.5,37.8L27.9,56.9c-2.1,1.1-4.6,0.3-5.7-1.8c-1.1-2.1-0.3-4.6,1.8-5.7l38.6-20.1          c1.2-0.6,2.7-0.6,3.9,0L105,49.4c2.1,1.1,2.9,3.6,1.8,5.7C105.8,57.2,103.2,58,101.1,56.9z" fill="#FCD65E"/></g></g></g></g></g><g><g><path d="M59.7,68.9v30.2H36.5V68.9c0-1.2,1-2.2,2.2-2.2h18.7C58.7,66.6,59.7,67.6,59.7,68.9z" fill="#E6E8EB"/></g></g><g><g><g><rect fill="#5B4B57" height="28.9" width="18.7" x="38.7" y="70.2"/></g></g></g><g><g><circle cx="53.8" cy="84.6" fill="#7D6C7C" r="1.2"/></g></g><g><g><g><path d="M93.3,68.2v19c0,0.8-0.7,1.5-1.5,1.5H69c-0.8,0-1.5-0.7-1.5-1.5v-19c0-0.8,0.7-1.5,1.5-1.5h22.9        C92.7,66.6,93.3,67.3,93.3,68.2z" fill="#626C77"/></g><g><g><rect fill="#49C7EF" height="18" width="21.9" x="69.5" y="68.7"/></g></g></g><g><g><rect fill="#626C77" height="19.1" width="2" x="79.4" y="68.1"/></g></g><g><g><rect fill="#626C77" height="2" width="23.6" x="68.6" y="76.7"/></g></g></g></g></g></g></svg>